<?xml version="1.0" encoding="UTF-8"?>
<svg width="24px" height="24px" viewBox="0 0 24 24" version="1.1" xmlns="http://www.w3.org/2000/svg" xmlns:xlink="http://www.w3.org/1999/xlink">
    <title>icon/action/sync</title>
    <g id="icon/action/sync" stroke="none" stroke-width="1" fill="none" fill-rule="evenodd">
        <path d="M3.5475282,8.99674051 L3.454,9 C3.32869084,9.01437987 3.2146801,9.07536913 3.13344516,9.16893589 L3.079,9.245 L0.579,13.574 C0.483871018,13.7379971 0.489679771,13.9416907 0.594,14.1 C0.668615594,14.2115486 0.784004679,14.2872159 0.913064936,14.3126077 L1.042,14.3230677 L1.042,14.3230677 L1.072,14.322 L2.13,14.195 C2.25161135,14.18083 2.36570221,14.256468 2.4,14.374 C3.41070885,17.8917201 6.21862846,20.6047595 9.769,21.494 C13.2672728,22.3238346 16.9381983,21.1590106 19.318,18.464 C19.6261185,18.1313687 19.7299561,17.657969 19.5893483,17.2269122 C19.4487405,16.7958553 19.0857363,16.4747362 18.6407459,16.3877639 C18.2402546,16.3094889 17.8298762,16.4319198 17.53853,16.709711 L17.446,16.808 C15.6764354,18.811675 12.9470917,19.6777611 10.346,19.061 C7.84844824,18.4302865 5.83274652,16.590663 4.977,14.161 C4.951795,14.0892047 4.96024183,14.0098779 5,13.945 C5.02990898,13.8962858 5.07531544,13.8598575 5.12808177,13.8409176 L5.183,13.828 L7.031,13.607 C7.21873163,13.5838548 7.37733113,13.4567522 7.4408161,13.2785711 C7.49372025,13.1300868 7.4730244,12.9673166 7.38896059,12.838112 L7.331,12.765 L3.875,9.151 C3.78880509,9.05874243 3.67122802,9.00430267 3.5475282,8.99674051 Z M14.257,2.5 C10.7588301,1.67011418 7.08801238,2.83541042 4.709,5.531 C4.25143208,6.04793853 4.29956147,6.83793208 4.8165,7.2955 C5.33343853,7.75306792 6.12343208,7.70493853 6.581,7.188 C8.35028447,5.18391933 11.0800613,4.31808025 13.681,4.936 C16.1781891,5.56925687 18.1932345,7.40940729 19.05,9.839 C19.0757694,9.90984888 19.0681909,9.98854336 19.0293747,10.0531725 C19.0002624,10.1016443 18.9559108,10.1383218 18.9040616,10.1580764 L18.85,10.172 L16.972,10.404 C16.7834343,10.4265839 16.6239416,10.5540463 16.5603355,10.7329913 C16.5073305,10.8821121 16.5285398,11.0455294 16.6134754,11.174871 L16.672,11.248 L20.149,14.841 C20.2243371,14.9187229 20.3223005,14.9693656 20.4277479,14.9865166 L20.508,14.993 C20.5286397,14.9944919 20.5493603,14.9944919 20.57,14.993 C20.6951831,14.97761 20.8086934,14.9157077 20.8891701,14.8214954 L20.943,14.745 L23.419,10.403 C23.5129326,10.2382517 23.5055742,10.0345418 23.4,9.877 C23.3142733,9.74539666 23.1720751,9.66436492 23.0188759,9.65491329 L22.926,9.658 L21.893,9.788 C21.77112,9.80366486 21.6560362,9.7280748 21.622,9.61 C20.6075009,6.09804129 17.8025125,3.39017057 14.257,2.5 Z" id="Color" fill="#444444"></path>
    </g>
</svg>