<?xml version="1.0" encoding="UTF-8"?>
<svg width="24px" height="24px" viewBox="0 0 24 24" version="1.1" xmlns="http://www.w3.org/2000/svg" xmlns:xlink="http://www.w3.org/1999/xlink">
    <title>icon/data/dataset</title>
    <g id="icon/data/dataset" stroke="none" stroke-width="1" fill="none" fill-rule="evenodd">
        <g id="analytics-bars-3d" transform="translate(1.499996, -0.002820)" fill="#444444" fill-rule="nonzero">
            <path d="M4.77700415,13.2208205 L8.37700415,10.8208205 C8.41579506,10.7954444 8.43912339,10.7521741 8.43900654,10.7058205 C8.43927859,10.6591584 8.4159536,10.6155181 8.37700415,10.5898205 L5.12400415,8.42182045 C4.73954503,8.19272652 4.26046326,8.19272652 3.87600415,8.42182045 L0.62400415,10.5898205 C0.585054703,10.6155181 0.561729711,10.6591584 0.562001754,10.7058205 C0.561884909,10.7521741 0.585213239,10.7954444 0.62400415,10.8208205 L4.22400415,13.2208205 C4.39156322,13.332033 4.60944507,13.332033 4.77700415,13.2208205 Z" id="Path"></path>
            <path d="M0.0420041496,11.6858205 C0.0159369119,11.6993804 -0.000298149587,11.7264388 0,11.7558205 L0,20.3678205 C0.0262942187,20.8311496 0.250266722,21.2608855 0.61500415,21.5478205 L3.88500415,23.8288205 C4.26104787,24.0648041 4.73896043,24.0648041 5.11500415,23.8288205 L8.38500415,21.5478205 C8.74974158,21.2608855 8.97371408,20.8311496 9,20.3678205 L9,11.7558205 C8.99970754,11.7265437 8.98344149,11.6997676 8.95759618,11.6860112 C8.93175087,11.6722548 8.90045535,11.6737159 8.87600415,11.6898205 L5.33200415,14.0528205 C4.8281781,14.3886752 4.1718302,14.3886752 3.66800415,14.0528205 L0.12400415,11.6898205 C0.0996403731,11.6730467 0.0678848271,11.6714977 0.0420041496,11.6858205 Z" id="Path"></path>
            <path d="M12.0420041,3.43582045 C12.0159369,3.44938038 11.9997019,3.47643881 12,3.50582045 L12,20.3678205 C12.0262942,20.8311496 12.2502667,21.2608855 12.6150041,21.5478205 L15.8850041,23.8288205 C16.2610479,24.0648041 16.7389604,24.0648041 17.1150041,23.8288205 L20.3850041,21.5478205 C20.7497416,21.2608855 20.9737141,20.8311496 21,20.3678205 L21,3.50282045 C20.9997075,3.47354367 20.9834415,3.44676756 20.9575962,3.43301118 C20.9317509,3.41925481 20.9004554,3.42071589 20.8760041,3.43682045 L17.3320041,5.80282045 C16.8281781,6.13867516 16.1718302,6.13867516 15.6680041,5.80282045 L12.1240041,3.43982045 C12.0996404,3.42304674 12.0678848,3.42149769 12.0420041,3.43582045 Z" id="Path"></path>
            <path d="M16.7770041,4.97082045 L20.3770041,2.57082045 C20.4157951,2.54544442 20.4391234,2.50217413 20.4390065,2.45582045 C20.4392786,2.40915836 20.4159536,2.36551806 20.3770041,2.33982045 L17.1240041,0.171820455 C16.739545,-0.0572734849 16.2604633,-0.0572734849 15.8760041,0.171820455 L12.6240041,2.33982045 C12.5850547,2.36551806 12.5617297,2.40915836 12.5620018,2.45582045 C12.5618849,2.50217413 12.5852132,2.54544442 12.6240041,2.57082045 L16.2240041,4.97082045 C16.3915632,5.08203295 16.6094451,5.08203295 16.7770041,4.97082045 Z" id="Path"></path>
        </g>
    </g>
</svg>