<svg width="24" height="24" viewBox="0 0 24 24" fill="none" xmlns="http://www.w3.org/2000/svg">
<mask id="mask0_2719_65547" style="mask-type:alpha" maskUnits="userSpaceOnUse" x="0" y="0" width="24" height="24">
<path d="M23.7636 20.3508L14.0849 1.15262C13.7274 0.443995 13.0208 0 12.2505 0C11.4803 0 10.7737 0.443995 10.4162 1.15262L0.736433 20.3508C0.400142 21.0177 0.423947 21.8186 0.7992 22.4627C1.17445 23.1067 1.84655 23.5 2.57131 23.5H21.9287C22.6535 23.5 23.3255 23.1067 23.7008 22.4627C24.0761 21.8186 24.0999 21.0177 23.7636 20.3508ZM11.2145 7.89942C11.2145 7.30543 11.6781 6.82389 12.25 6.82389C12.8219 6.82389 13.2855 7.30543 13.2855 7.89942V14.3526C13.2855 14.9466 12.8219 15.4281 12.25 15.4281C11.6781 15.4281 11.2145 14.9466 11.2145 14.3526V7.89942ZM12.3018 20.2788H12.2728C11.4243 20.276 10.729 19.5784 10.6968 18.6978C10.6817 18.2719 10.8321 17.8577 11.1141 17.5482C11.396 17.2387 11.786 17.06 12.1962 17.0522H12.2251C13.0735 17.0532 13.7699 17.7495 13.8032 18.63C13.8195 19.0568 13.6693 19.4724 13.3867 19.7827C13.1041 20.093 12.713 20.2719 12.3018 20.2788Z" fill="white"/>
</mask>
<g mask="url(#mask0_2719_65547)">
<path d="M23.7636 20.3508L14.0849 1.15262C13.7274 0.443995 13.0208 0 12.2505 0C11.4803 0 10.7737 0.443995 10.4162 1.15262L0.736433 20.3508C0.400142 21.0177 0.423947 21.8186 0.7992 22.4627C1.17445 23.1067 1.84655 23.5 2.57131 23.5H21.9287C22.6535 23.5 23.3255 23.1067 23.7008 22.4627C24.0761 21.8186 24.0999 21.0177 23.7636 20.3508ZM11.2145 7.89942C11.2145 7.30543 11.6781 6.82389 12.25 6.82389C12.8219 6.82389 13.2855 7.30543 13.2855 7.89942V14.3526C13.2855 14.9466 12.8219 15.4281 12.25 15.4281C11.6781 15.4281 11.2145 14.9466 11.2145 14.3526V7.89942ZM12.3018 20.2788H12.2728C11.4243 20.276 10.729 19.5784 10.6968 18.6978C10.6817 18.2719 10.8321 17.8577 11.1141 17.5482C11.396 17.2387 11.786 17.06 12.1962 17.0522H12.2251C13.0735 17.0532 13.7699 17.7495 13.8032 18.63C13.8195 19.0568 13.6693 19.4724 13.3867 19.7827C13.1041 20.093 12.713 20.2719 12.3018 20.2788Z" fill="#595959"/>
<path d="M24.5 0H0.5V24H24.5V0Z" fill="#E20000"/>
</g>
</svg>
