<?xml version="1.0" standalone="no"?>
<!DOCTYPE svg PUBLIC "-//W3C//DTD SVG 20010904//EN"
 "http://www.w3.org/TR/2001/REC-SVG-20010904/DTD/svg10.dtd">
<svg version="1.0" xmlns="http://www.w3.org/2000/svg"
 width="100" height="100" viewBox="0 0 512.000000 512.000000"
 preserveAspectRatio="xMidYMid meet">

<g transform="translate(0.000000,512.000000) scale(0.100000,-0.100000)"
fill="#000000" stroke="none">
<path d="M1001 4784 c-169 -45 -301 -180 -346 -351 -23 -86 -23 -3660 0 -3746
45 -173 178 -307 350 -352 52 -13 244 -15 1555 -15 1646 0 1549 -4 1671 61 70
38 157 126 193 197 58 115 56 50 56 1474 l0 1308 -428 0 c-461 0 -488 3 -591
55 -71 35 -163 125 -199 193 -61 114 -62 125 -62 684 l0 508 -1072 -1 c-904 0
-1081 -3 -1127 -15z"/>
<path d="M3520 4252 c0 -351 3 -449 14 -475 17 -42 68 -85 109 -92 18 -3 193
-4 389 -3 l358 3 -411 480 c-226 264 -422 491 -435 505 l-24 25 0 -443z"/>
</g>
</svg>
