<?xml version="1.0" encoding="UTF-8"?>
<svg width="24px" height="24px" viewBox="0 0 24 24" version="1.1" xmlns="http://www.w3.org/2000/svg" xmlns:xlink="http://www.w3.org/1999/xlink">
    <title></title>
    <g id="icon/data/issue" stroke="none" stroke-width="1" fill="none" fill-rule="evenodd">
        <g id="issues" transform="translate(1.500000, 0.000000)" fill="#E20000" fill-rule="nonzero">
            <g id="flag-triangle">
                <path d="M20.409,8.587 L5.909,2.087 C5.59951761,1.94828924 5.240823,1.97589018 4.95620541,2.16031591 C4.67158783,2.34474164 4.49999989,2.66085402 4.49999989,3 L4.49999989,16.5 C4.49999989,16.8440807 4.67718076,17.163919 4.96867496,17.3467377 C5.26016916,17.5295564 5.62517927,17.5496751 5.935,17.4 L20.435,10.4 C20.7851626,10.2308538 21.0055112,9.87404759 21.0000384,9.48521191 C20.9943587,9.09637623 20.763869,8.74603546 20.409,8.587 L20.409,8.587 Z" id="Shape"></path>
                <path d="M1.5,0 C0.671572875,0 0,0.671572875 0,1.5 L0,22.5 C0,23.3284271 0.671572875,24 1.5,24 C2.32842712,24 3,23.3284271 3,22.5 L3,1.5 C3,0.671572875 2.32842712,0 1.5,0 Z" id="Shape"></path>
            </g>
        </g>
    </g>
</svg>