<?xml version="1.0" encoding="UTF-8"?>
<svg width="14px" height="14px" viewBox="0 0 14 14" version="1.1" xmlns="http://www.w3.org/2000/svg" xmlns:xlink="http://www.w3.org/1999/xlink">
    <title>Processed</title>
    <defs>
        <path d="M13.1749175,5.93341753 L7.5830842,0.341584196 C7.12750104,-0.113861399 6.38900069,-0.113861399 5.93341753,0.341584196 L0.341584196,5.93400086 C-0.113861399,6.38958402 -0.113861399,7.12808437 0.341584196,7.58366753 L0.341584196,7.58366753 L5.93341753,13.1749175 C6.38900069,13.6303631 7.12750104,13.6303631 7.5830842,13.1749175 L13.1749175,7.58366753 C13.3938122,7.36486152 13.5167934,7.06804366 13.5167934,6.75854253 C13.5167934,6.4490414 13.3938122,6.15222354 13.1749175,5.93341753 Z M6.2145842,3.50150086 C6.2145842,3.17933476 6.47575143,2.91816753 6.79791753,2.91816753 C7.12008363,2.91816753 7.38125086,3.17933476 7.38125086,3.50150086 L7.38125086,7.00150086 C7.38125086,7.32366697 7.12008363,7.5848342 6.79791753,7.5848342 C6.47575143,7.5848342 6.2145842,7.32366697 6.2145842,7.00150086 L6.2145842,3.50150086 Z M6.82766753,10.2156675 L6.8113342,10.2156675 C6.3334583,10.2138355 5.94193743,9.83569116 5.92350086,9.35816753 C5.91484563,9.12717273 5.99950027,8.90241088 6.15839194,8.7345212 C6.31728362,8.56663152 6.53704646,8.46973678 6.76816753,8.46566753 L6.78450086,8.46566753 C7.26262017,8.46689993 7.65448844,8.84537979 7.6723342,9.32316753 C7.68098943,9.55416233 7.59633479,9.77892417 7.43744312,9.94681386 C7.27855144,10.1147035 7.0587886,10.2115983 6.82766753,10.2156675 Z" id="path-1"></path>
    </defs>
    <g id="3.-UI-MidFi" stroke="none" stroke-width="1" fill="none" fill-rule="evenodd">
        <g id="ProductionMonitor_LP_v10" transform="translate(-1301.000000, -146.000000)">
            <g id="Processed" transform="translate(1301.000000, 146.000000)">
                <g id="Mask" fill-rule="nonzero">
                    <path d="M13.1749175,5.93341753 L7.5830842,0.341584196 C7.12750104,-0.113861399 6.38900069,-0.113861399 5.93341753,0.341584196 L0.341584196,5.93400086 C-0.113861399,6.38958402 -0.113861399,7.12808437 0.341584196,7.58366753 L0.341584196,7.58366753 L5.93341753,13.1749175 C6.38900069,13.6303631 7.12750104,13.6303631 7.5830842,13.1749175 L13.1749175,7.58366753 C13.3938122,7.36486152 13.5167934,7.06804366 13.5167934,6.75854253 C13.5167934,6.4490414 13.3938122,6.15222354 13.1749175,5.93341753 Z M6.2145842,3.50150086 C6.2145842,3.17933476 6.47575143,2.91816753 6.79791753,2.91816753 C7.12008363,2.91816753 7.38125086,3.17933476 7.38125086,3.50150086 L7.38125086,7.00150086 C7.38125086,7.32366697 7.12008363,7.5848342 6.79791753,7.5848342 C6.47575143,7.5848342 6.2145842,7.32366697 6.2145842,7.00150086 L6.2145842,3.50150086 Z M6.82766753,10.2156675 L6.8113342,10.2156675 C6.3334583,10.2138355 5.94193743,9.83569116 5.92350086,9.35816753 C5.91484563,9.12717273 5.99950027,8.90241088 6.15839194,8.7345212 C6.31728362,8.56663152 6.53704646,8.46973678 6.76816753,8.46566753 L6.78450086,8.46566753 C7.26262017,8.46689993 7.65448844,8.84537979 7.6723342,9.32316753 C7.68098943,9.55416233 7.59633479,9.77892417 7.43744312,9.94681386 C7.27855144,10.1147035 7.0587886,10.2115983 6.82766753,10.2156675 Z" id="path-1"></path>
                </g>
                <g id="color-Clipped">
                    <mask id="mask-2" fill="white">
                        <use xlink:href="#path-1"></use>
                    </mask>
                    <g id="path-1"></g>
                    <g id="color" mask="url(#mask-2)">
                        <g transform="translate(-0.241749, -0.241749)" id="Rectangle">
                            <g transform="translate(0.000000, 0.000000)">
                                <rect fill="#FFFFFF" fill-rule="nonzero" x="0" y="0" width="14" height="14"></rect>
                            </g>
                        </g>
                    </g>
                </g>
            </g>
        </g>
    </g>
</svg>