<?xml version="1.0" encoding="UTF-8"?>
<svg width="14px" height="14px" viewBox="0 0 14 14" version="1.1" xmlns="http://www.w3.org/2000/svg" xmlns:xlink="http://www.w3.org/1999/xlink">
    <title>Icon/Quarantine</title>
    <defs>
        <path d="M13.3892837,5.43334925 C12.6510451,4.62411953 11.80738,3.91779527 10.8809503,3.33334925 L13.2142837,1.00293258 C13.365925,0.856472472 13.426741,0.639587142 13.373357,0.435636641 C13.319973,0.231686139 13.1606968,0.0724099118 12.9567463,0.0190259048 C12.7527958,-0.0343581022 12.5359104,0.0264579052 12.3894503,0.178099246 L12.3789503,0.188599246 C12.358939,0.252246703 12.3243887,0.310363149 12.2780337,0.358349246 L0.903033674,11.7333492 C0.898367007,11.7374326 0.892533674,11.7385992 0.887867007,11.7432659 C0.782417349,12.0002141 0.872756643,12.2958775 1.10381046,12.4500078 C1.33486428,12.6041381 1.64254729,12.5739857 1.83928367,12.3779326 L4.25778367,9.95943258 C5.05152955,10.3059897 5.90597794,10.4921445 6.77195034,10.5071826 L6.94695034,10.5071826 C9.42961701,10.5071826 11.898867,8.76651591 13.393367,7.12384925 C13.823348,6.64177642 13.8215885,5.91333925 13.3892837,5.43334925 Z M6.85595034,2.05059925 C7.49753195,2.04697859 8.13563609,2.1450273 8.74653367,2.34109925 C8.79541693,2.35719996 8.83244335,2.39751425 8.84433726,2.44758761 C8.85623117,2.49766096 8.84128854,2.55031945 8.80486701,2.58668258 L8.80486701,2.58668258 L7.67261701,3.71951591 C7.6360051,3.75614319 7.58238814,3.76999424 7.53261701,3.75568258 C7.31276725,3.69112363 7.08507043,3.6571654 6.85595034,3.65476591 C5.40620287,3.65476591 4.23095034,4.83001844 4.23095034,6.27976591 C4.23420494,6.50894379 4.26874639,6.73660334 4.33361701,6.95643258 C4.34807698,7.00609814 4.33445344,7.05969895 4.29803367,7.09643258 L4.29803367,7.09643258 L2.52178367,8.87559925 C2.47074695,8.92631301 2.39080419,8.93342448 2.33161701,8.89251591 C1.60124127,8.37751232 0.928817073,7.78488715 0.326117007,7.12501591 C-0.110266757,6.64494633 -0.108495902,5.91130657 0.330200341,5.43334925 C1.83928367,3.77143258 4.34761701,2.01676591 6.85595034,2.05059925 Z M9.14606534,5.15377627 C9.19332293,5.16155578 9.23382787,5.19186951 9.25461701,5.23501591 C9.51189524,5.79555373 9.55363689,6.43123142 9.37186701,7.02059925 C9.11466291,7.86143434 8.46027645,8.5219284 7.62186701,8.78693258 C7.02633189,8.97656874 6.38145255,8.93704388 5.81353367,8.67609925 C5.77050839,8.65522741 5.74026291,8.61480247 5.73238246,8.56763567 C5.72450201,8.52046887 5.73996352,8.47240738 5.77386701,8.43868258 L9.01720034,5.19593258 C9.05072311,5.16172696 9.09880775,5.14599677 9.14606534,5.15377627 Z" id="path-1"></path>
    </defs>
    <g id="3.-UI-MidFi" stroke="none" stroke-width="1" fill="none" fill-rule="evenodd">
        <g id="tag/icon-copy-21" transform="translate(-8.000000, -3.000000)">
            <g id="Icon/Quarantine" transform="translate(8.144050, 3.720234)">
                <mask id="mask-2" fill="white">
                    <use xlink:href="#path-1"></use>
                </mask>
                <use id="Mask" fill="#000000" fill-rule="nonzero" xlink:href="#path-1"></use>
                <g id="color" mask="url(#mask-2)" fill="#FFFFFF">
                    <g transform="translate(-0.144050, -0.720234)" id="Rectangle">
                        <rect x="0" y="0" width="14" height="14"></rect>
                    </g>
                </g>
            </g>
        </g>
    </g>
</svg>