<svg width="24" height="24" id="stale" viewBox="0 0 24 24" fill="none" xmlns="http://www.w3.org/2000/svg">
<path d="M11.9856 13.306C12.5626 13.306 13.0304 12.8342 13.0304 12.2522V8.05797C13.0304 7.47596 12.5626 7.00415 11.9856 7.00415C11.4087 7.00415 10.9409 7.47596 10.9409 8.05797V12.2522C10.9409 12.8342 11.4087 13.306 11.9856 13.306Z" fill="#E20000"/>
<path d="M11.9858 17.5213C12.7071 17.5213 13.2917 16.9315 13.2917 16.204C13.2917 15.4765 12.7071 14.8867 11.9858 14.8867C11.2646 14.8867 10.6799 15.4765 10.6799 16.204C10.6799 16.9315 11.2646 17.5213 11.9858 17.5213Z" fill="#E20000"/>
<path d="M19.6164 5.47185C17.1309 2.6306 13.2953 1.40251 9.64032 2.27772C5.93624 3.2158 3.00581 6.06941 1.94594 9.77039C1.91038 9.89482 1.79015 9.97448 1.66282 9.95797L0.583625 9.82097C0.388328 9.79565 0.195899 9.88534 0.0884267 10.0518C-0.021869 10.2178 -0.0295564 10.4325 0.068577 10.6061L2.65531 15.1818C2.73709 15.326 2.88151 15.4228 3.04499 15.4431C3.06655 15.4447 3.0882 15.4447 3.10976 15.4431C3.25112 15.4431 3.38643 15.3853 3.48482 15.2829L7.11731 11.4965C7.25522 11.3527 7.30042 11.1424 7.23397 10.9538C7.16752 10.7652 7.0009 10.6309 6.8039 10.6071L4.84191 10.3626C4.76392 10.3515 4.69507 10.3055 4.65451 10.2374C4.61396 10.1693 4.60604 10.0864 4.63297 10.0117C5.52972 7.45153 7.63652 5.51347 10.2463 4.84799C12.9635 4.19657 15.8155 5.10905 17.6638 7.2212C18.1418 7.76596 18.9671 7.81668 19.5072 7.33448C20.0472 6.85229 20.0975 6.01978 19.6195 5.47502L19.6164 5.47185Z" fill="#E20000"/>
<path d="M4.46465 17.242C4.20529 17.4734 4.04778 17.7994 4.02681 18.1481C4.00584 18.4968 4.12314 18.8395 4.35286 19.1009C6.83909 21.941 10.6742 23.1685 14.3289 22.294C18.0381 21.3569 20.9716 18.4978 22.0275 14.7908C22.0633 14.6669 22.1825 14.5872 22.3095 14.6022L23.4149 14.736C23.4357 14.7375 23.4567 14.7375 23.4775 14.736C23.6642 14.736 23.8366 14.6356 23.9299 14.4725C24.0232 14.3095 24.0232 14.1087 23.9299 13.9456L21.3181 9.38364C21.2347 9.24089 21.0896 9.14604 20.9263 9.12756C20.7629 9.1059 20.5991 9.16516 20.4865 9.28669L16.8759 13.0952C16.7393 13.2392 16.6949 13.4486 16.7612 13.6364C16.8275 13.8242 16.9932 13.9581 17.1894 13.9825L19.12 14.2154C19.1991 14.2248 19.2695 14.2703 19.3112 14.3387C19.3527 14.4071 19.3615 14.4907 19.3352 14.5663C18.4412 17.1268 16.3354 19.0654 13.7261 19.7301C11.0087 20.38 8.15728 19.4673 6.30858 17.3558C6.07939 17.0935 5.75605 16.934 5.41005 16.9126C5.06404 16.8913 4.72385 17.0098 4.46465 17.242Z" fill="#E20000"/>
</svg>
