<?xml version="1.0" encoding="UTF-8"?>
<svg width="14px" height="14px" viewBox="0 0 14 14" version="1.1" xmlns="http://www.w3.org/2000/svg" xmlns:xlink="http://www.w3.org/1999/xlink">
    <title>icon/bell</title>
    <defs>
        <path d="M7,-8.8817842e-16 C3.13400675,-8.8817842e-16 0,3.13400675 0,7 C0,10.8659932 3.13400675,14 7,14 C10.8659932,14 14,10.8659932 14,7 C13.9954997,3.13587236 10.8641276,0.00450027801 7,-8.8817842e-16 Z M11.04075,4.78333333 L7.04783333,10.2019167 C6.95260626,10.3282606 6.81060815,10.4110446 6.65374609,10.4316671 C6.49688402,10.4522895 6.33831395,10.4090207 6.21366667,10.3115833 L3.36233333,8.03191667 C3.11072161,7.83056285 3.06997952,7.46336173 3.27133333,7.21175 C3.47268715,6.96013827 3.83988827,6.91939618 4.0915,7.12075 L6.46916667,9.023 L10.1015833,4.09325 C10.2206953,3.91451084 10.4283965,3.81568988 10.6422234,3.83602189 C10.8560503,3.85635389 11.0414047,3.99254904 11.1246954,4.19053391 C11.2079861,4.38851878 11.1757363,4.61625831 11.04075,4.78333333 Z" id="path-1"></path>
    </defs>
    <g id="3.-UI-MidFi" stroke="none" stroke-width="1" fill="none" fill-rule="evenodd">
        <g id="tag/icon-copy-21" transform="translate(-8.000000, -3.000000)">
            <g id="icon/bell" transform="translate(8.000000, 3.000000)">
                <mask id="mask-2" fill="white">
                    <use xlink:href="#path-1"></use>
                </mask>
                <use id="Mask" fill="#FFFFFF" fill-rule="nonzero" xlink:href="#path-1"></use>
                <g id="color" mask="url(#mask-2)" fill="#FFFFFF">
                    <rect id="Rectangle" x="0" y="0" width="14" height="14"></rect>
                </g>
            </g>
        </g>
    </g>
</svg>