<?xml version="1.0" encoding="UTF-8"?>
<svg width="24px" height="24px" viewBox="0 0 24 24" version="1.1" xmlns="http://www.w3.org/2000/svg" xmlns:xlink="http://www.w3.org/1999/xlink">
    <title>icon/data/dataflow</title>
    <defs>
        <path d="M20.4471128,18.7717116 C20.6187024,18.6538787 20.8292345,18.6573518 20.9981255,18.7808016 L20.9981255,18.7808016 L23.7340045,20.7734728 C23.8989826,20.8932059 23.9999998,21.1094416 23.9999998,21.342857 C23.9999998,21.5762724 23.8989826,21.792508 23.7340045,21.9122411 L23.7340045,21.9122411 L20.9958428,23.9049124 C20.8268642,24.0284263 20.6162093,24.0318349 20.4445814,23.9138321 C20.2729535,23.7958294 20.1669584,23.5747082 20.1672036,23.3351817 L20.1672036,23.3351817 L20.1672036,22.5124684 C20.1672036,22.4167708 20.1033271,22.3391926 20.0245316,22.3391926 L20.0245316,22.3391926 L7.55260476,22.3391926 C7.33500741,22.3391927 7.1263306,22.2341633 6.97251957,22.0472292 C6.81870853,21.860295 6.73252569,21.6067832 6.73252569,21.3425104 C6.73252569,20.7924409 7.09968771,20.3465214 7.55260476,20.3465214 L7.55260476,20.3465214 L20.0268143,20.3465214 C20.1056099,20.3465214 20.1694863,20.2689432 20.1694863,20.1732456 L20.1694863,20.1732456 L20.1694863,19.3498392 C20.1694471,19.1104366 20.2755232,18.8895445 20.4471128,18.7717116 Z M3.0100301,15.8660037 C3.17930561,15.743004 3.39004033,15.739769 3.56183038,15.8575329 C3.73362044,15.9752968 3.83996497,16.195893 3.84028922,16.4351551 L3.84028922,16.4351551 L3.84028922,17.2587263 C3.84028922,17.354443 3.90429054,17.4320367 3.98324017,17.4320367 L3.98324017,17.4320367 L18.4693518,17.4320367 C18.9148699,17.4462841 19.2699242,17.8882479 19.2699242,18.4285717 C19.2699242,18.9688954 18.9148699,19.4108592 18.4693518,19.4251066 L18.4693518,19.4251066 L3.97923755,19.4251066 C3.90028792,19.4251066 3.8362866,19.5027003 3.8362866,19.5984171 L3.8362866,19.5984171 L3.8362866,20.421295 C3.83616793,20.6606811 3.72990427,20.8815057 3.55807611,20.9994392 C3.38624795,21.1173727 3.17539066,21.1142027 3.00602748,20.9911396 L3.00602748,20.9911396 L0.266515458,18.9980697 C0.101214857,18.8783127 0,18.6620338 0,18.4285717 C0,18.1951095 0.101214857,17.9788306 0.266515458,17.8590736 L0.266515458,17.8590736 Z M8.0443787,10.6285714 C8.32052107,10.6285714 8.5443787,10.8524291 8.5443787,11.1285714 L8.5443787,15.2714286 C8.5443787,15.5475709 8.32052107,15.7714286 8.0443787,15.7714286 L5.0443787,15.7714286 C4.76823632,15.7714286 4.5443787,15.5475709 4.5443787,15.2714286 L4.5443787,11.1285714 C4.5443787,10.8524291 4.76823632,10.6285714 5.0443787,10.6285714 L8.0443787,10.6285714 Z M14.0443787,2.26485497e-13 C14.3205211,2.2643477e-13 14.5443787,0.223857625 14.5443787,0.5 L14.5443787,15.2714286 C14.5443787,15.5475709 14.3205211,15.7714286 14.0443787,15.7714286 L11.0443787,15.7714286 C10.7682363,15.7714286 10.5443787,15.5475709 10.5443787,15.2714286 L10.5443787,0.5 C10.5443787,0.223857625 10.7682363,2.26536224e-13 11.0443787,2.26485497e-13 L14.0443787,2.26485497e-13 Z M20.0443787,5.31428571 C20.3205211,5.31428571 20.5443787,5.53814334 20.5443787,5.81428571 L20.5443787,15.2714286 C20.5443787,15.5475709 20.3205211,15.7714286 20.0443787,15.7714286 L17.0443787,15.7714286 C16.7682363,15.7714286 16.5443787,15.5475709 16.5443787,15.2714286 L16.5443787,5.81428571 C16.5443787,5.53814334 16.7682363,5.31428571 17.0443787,5.31428571 L20.0443787,5.31428571 Z" id="path-1"></path>
    </defs>
    <g id="icon/data/dataflow" stroke="none" stroke-width="1" fill="none" fill-rule="evenodd">
        <mask id="mask-2" fill="white">
            <use xlink:href="#path-1"></use>
        </mask>
        <use id="dataflow" fill="#444444" fill-rule="nonzero" xlink:href="#path-1"></use>
    </g>
</svg>