<?xml version="1.0" encoding="UTF-8"?>
<svg width="24px" height="24px" viewBox="0 0 24 24" version="1.1" xmlns="http://www.w3.org/2000/svg" xmlns:xlink="http://www.w3.org/1999/xlink">
    <title>icon/data/datapackage</title>
    <g id="icon/data/datapackage" stroke="none" stroke-width="1" fill="none" fill-rule="evenodd">
        <g id="datapackage" transform="translate(0.500000, 0.763515)" fill="#444444" fill-rule="nonzero">
            <g id="shipment-package">
                <path d="M15.4730001,7.50748486 C15.5621398,7.46687159 15.619348,7.37794063 15.619348,7.27998486 C15.619348,7.18202909 15.5621398,7.09309813 15.4730001,7.05248486 L5.71600006,2.60448486 C5.58675691,2.54706691 5.4392432,2.54706691 5.31000006,2.60448486 L1.49300006,4.26048486 C1.40081172,4.29975693 1.34097965,4.39028015 1.34097965,4.49048486 C1.34097965,4.59068957 1.40081172,4.6812128 1.49300006,4.72048486 L11.7830001,9.00848486 C11.9113588,9.06223541 12.0563112,9.06006112 12.1830001,9.00248486 L15.4730001,7.50748486 Z" id="Path"></path>
                <path d="M21.5620001,4.73648486 C21.6517363,4.69612421 21.7094525,4.60687982 21.7094525,4.50848486 C21.7094525,4.4100899 21.6517363,4.32084551 21.5620001,4.28048486 L11.9000001,0.083484861 C11.6449496,-0.027828287 11.3550505,-0.027828287 11.1000001,0.083484861 L7.88000006,1.48348486 C7.78966097,1.52358535 7.7314286,1.61314559 7.7314286,1.71198486 C7.7314286,1.81082413 7.78966097,1.90038437 7.88000006,1.94048486 L17.5800001,6.36248486 C17.7115184,6.42230027 17.8624817,6.42230027 17.9940001,6.36248486 L21.5620001,4.73648486 Z" id="Path"></path>
                <path d="M0.346000056,5.86648486 C0.268820196,5.83438693 0.180705072,5.84298522 0.111186307,5.88939803 C0.0416675417,5.93581085 0,6.01389655 0,6.09748486 L0,17.2434849 C0,17.6470644 0.242529774,18.0111067 0.615000056,18.1664849 L10.9000001,22.4534849 C10.9771799,22.4855828 11.065295,22.4769845 11.1348138,22.4305717 C11.2043326,22.3841589 11.2460001,22.3060732 11.2460001,22.2224849 L11.2460001,10.5764849 C11.2457991,10.4755197 11.1851214,10.3845032 11.0920001,10.3454849 L0.346000056,5.86648486 Z" id="Path"></path>
                <path d="M12.7500001,22.1804849 C12.750452,22.2652237 12.7936307,22.3440137 12.8648138,22.3899903 C12.9359969,22.4359669 13.025573,22.4429223 13.1030001,22.4084849 L22.4140001,18.1764849 C22.7707966,18.0142114 22.9998915,17.6584497 23.0000001,17.2664849 L23.0000001,6.12248486 C23.0000001,6.03753685 22.956998,5.95836603 22.8856402,5.91227659 C22.8142825,5.86618714 22.7244033,5.85948624 22.6470001,5.89448486 L12.9000001,10.3264849 C12.8104246,10.3664275 12.7528031,10.4554076 12.7530001,10.5534849 L12.7500001,22.1804849 Z" id="Path"></path>
            </g>
        </g>
    </g>
</svg>